<mxfile host="app.diagrams.net" agent="Mozilla/5.0 (Macintosh; Intel Mac OS X 10_15_7) AppleWebKit/537.36 (KHTML, like Gecko) Chrome/135.0.0.0 Safari/537.36" version="26.2.14">
  <diagram name="Page-1" id="9CgZ22B-FHq7ZXvI5nzE">
    <mxGraphModel dx="591" dy="458" grid="1" gridSize="10" guides="1" tooltips="1" connect="1" arrows="1" fold="1" page="1" pageScale="1" pageWidth="827" pageHeight="1169" math="0" shadow="0">
      <root>
        <mxCell id="0" />
        <mxCell id="1" parent="0" />
        <mxCell id="WWkFsfiBGZTd7R0sTSos-3" value="" style="rounded=1;whiteSpace=wrap;html=1;dashed=1;" vertex="1" parent="1">
          <mxGeometry x="369" y="220" width="220" height="140" as="geometry" />
        </mxCell>
        <mxCell id="WWkFsfiBGZTd7R0sTSos-2" value="" style="rounded=1;whiteSpace=wrap;html=1;dashed=1;" vertex="1" parent="1">
          <mxGeometry x="115.5" y="220" width="220" height="140" as="geometry" />
        </mxCell>
        <mxCell id="WWkFsfiBGZTd7R0sTSos-1" value="" style="rounded=1;whiteSpace=wrap;html=1;dashed=1;" vertex="1" parent="1">
          <mxGeometry x="115.5" y="61.5" width="220" height="140" as="geometry" />
        </mxCell>
        <mxCell id="YWqDGeWeltkxrgUtz7M--3" value="Service showing the current problems" style="rounded=1;whiteSpace=wrap;html=1;" parent="1" vertex="1">
          <mxGeometry x="147" y="83.5" width="153" height="96.5" as="geometry" />
        </mxCell>
        <mxCell id="YWqDGeWeltkxrgUtz7M--5" value="Service returning arrival times for station" style="rounded=1;whiteSpace=wrap;html=1;" parent="1" vertex="1">
          <mxGeometry x="147" y="242.5" width="157" height="95" as="geometry" />
        </mxCell>
        <mxCell id="YWqDGeWeltkxrgUtz7M--16" value="Disruptions data" style="shape=cylinder3;whiteSpace=wrap;html=1;boundedLbl=1;backgroundOutline=1;size=15;" parent="1" vertex="1">
          <mxGeometry x="436" y="242.5" width="86" height="100" as="geometry" />
        </mxCell>
        <mxCell id="YWqDGeWeltkxrgUtz7M--18" value="" style="rounded=1;whiteSpace=wrap;html=1;dashed=1;" parent="1" vertex="1">
          <mxGeometry x="369" y="59" width="220" height="140" as="geometry" />
        </mxCell>
        <mxCell id="YWqDGeWeltkxrgUtz7M--12" value="Routing service to closest public transportation" style="rounded=1;whiteSpace=wrap;html=1;" parent="1" vertex="1">
          <mxGeometry x="399" y="83.5" width="160" height="96" as="geometry" />
        </mxCell>
        <mxCell id="YWqDGeWeltkxrgUtz7M--19" value="Python Django Application" style="text;html=1;align=center;verticalAlign=middle;whiteSpace=wrap;rounded=0;fontSize=10;" parent="1" vertex="1">
          <mxGeometry x="379" y="59" width="130" height="20" as="geometry" />
        </mxCell>
        <mxCell id="YWqDGeWeltkxrgUtz7M--22" value="Python Django Application" style="text;html=1;align=center;verticalAlign=middle;whiteSpace=wrap;rounded=0;fontSize=10;" parent="1" vertex="1">
          <mxGeometry x="125.5" y="220" width="130" height="20" as="geometry" />
        </mxCell>
        <mxCell id="YWqDGeWeltkxrgUtz7M--25" value="Python Django Application" style="text;html=1;align=center;verticalAlign=middle;whiteSpace=wrap;rounded=0;fontSize=10;" parent="1" vertex="1">
          <mxGeometry x="125.5" y="59" width="130" height="20" as="geometry" />
        </mxCell>
        <mxCell id="WWkFsfiBGZTd7R0sTSos-4" value="Database" style="text;html=1;align=center;verticalAlign=middle;whiteSpace=wrap;rounded=0;fontSize=10;" vertex="1" parent="1">
          <mxGeometry x="345" y="220" width="138" height="20" as="geometry" />
        </mxCell>
        <mxCell id="WWkFsfiBGZTd7R0sTSos-5" value="" style="endArrow=classic;startArrow=classic;html=1;rounded=0;entryX=0;entryY=0.5;entryDx=0;entryDy=0;exitX=1;exitY=0.5;exitDx=0;exitDy=0;" edge="1" parent="1" source="WWkFsfiBGZTd7R0sTSos-2" target="WWkFsfiBGZTd7R0sTSos-3">
          <mxGeometry width="50" height="50" relative="1" as="geometry">
            <mxPoint x="310" y="310" as="sourcePoint" />
            <mxPoint x="360" y="260" as="targetPoint" />
          </mxGeometry>
        </mxCell>
        <mxCell id="WWkFsfiBGZTd7R0sTSos-6" value="" style="endArrow=classic;startArrow=classic;html=1;rounded=0;exitX=0.5;exitY=1;exitDx=0;exitDy=0;entryX=0.972;entryY=-0.038;entryDx=0;entryDy=0;entryPerimeter=0;" edge="1" parent="1" source="YWqDGeWeltkxrgUtz7M--18" target="WWkFsfiBGZTd7R0sTSos-4">
          <mxGeometry width="50" height="50" relative="1" as="geometry">
            <mxPoint x="346" y="300" as="sourcePoint" />
            <mxPoint x="480" y="220" as="targetPoint" />
          </mxGeometry>
        </mxCell>
      </root>
    </mxGraphModel>
  </diagram>
</mxfile>
